<svg width="83" height="24" viewBox="0 0 83 24" fill="none" xmlns="http://www.w3.org/2000/svg">
<g clip-path="url(#clip0_10965_79776)">
<path d="M34.7905 15.8697H38.0635C38.1922 17.5425 39.2222 18.6873 40.8335 18.6873H42.0576C43.2173 18.6873 44.5562 17.9036 44.5562 16.2811C44.5562 12.4334 35.049 14.8144 35.049 8.12208C35.049 5.08426 37.5606 3.05127 40.4855 3.05127H41.7861C44.7241 3.05127 47.0948 4.82675 47.3906 8.22471H44.1568C43.9516 6.65449 43.1007 5.84372 41.7096 5.84372H40.5247C39.4032 5.84372 38.334 6.61623 38.334 7.91589C38.334 11.7514 47.8412 9.12598 47.8412 16.1272C47.8412 19.4477 45.2914 21.4807 41.9671 21.4807H40.6796C37.4066 21.4807 34.9575 19.2415 34.7905 15.8697ZM48.8656 21.2745V3.2332H51.8932V13.0371L56.5834 8.30122H60.4086L55.5524 13.1528L60.8341 21.2745H57.2915L53.3748 15.4573L51.8941 16.9239V21.2745H48.8656ZM64.2694 14.0335V21.2791H61.2427V8.30682H64.2703V10.0954C64.7461 8.97577 65.6744 8.30588 66.8855 8.30588H68.5471V10.8418H66.6532C65.1464 10.8418 64.2703 12.5277 64.2703 14.0326L64.2694 14.0335ZM69.6247 8.30682H72.6523V21.2791H69.6247V8.30682ZM74.3923 3.2332H77.4059V21.2745H74.3923V3.2332ZM79.02 3.2332H82.0345V21.2745H79.0209L79.02 3.2332ZM72.781 3.2332H69.5081V6.42497H72.781V3.2332Z" fill="white"/>
<mask id="mask0_10965_79776" style="mask-type:luminance" maskUnits="userSpaceOnUse" x="0" y="2" width="84" height="19">
<path d="M0 2H83.6512V20.6598H0V2Z" fill="white"/>
</mask>
<g mask="url(#mask0_10965_79776)">
<path d="M30.4377 11.3369V11.348C30.4377 11.4479 30.3976 11.544 30.3258 11.6149L21.3411 20.6005C21.3235 20.6183 21.3026 20.6324 21.2795 20.642C21.2564 20.6516 21.2317 20.6566 21.2067 20.6565H21.1498C21.0993 20.6565 21.0509 20.6365 21.0152 20.6008C20.9795 20.5651 20.9595 20.5167 20.9595 20.4662V11.348C20.9595 11.4479 20.9193 11.544 20.8484 11.6149L11.9188 20.5455C11.8477 20.6164 11.7514 20.6564 11.651 20.6565H11.6417C11.5405 20.6563 11.4436 20.6161 11.372 20.5446L2.4433 11.6158C2.37257 11.545 2.33267 11.4491 2.33228 11.349V11.3387C2.33228 11.238 2.37239 11.1428 2.44423 11.0709L11.373 2.13941C11.4085 2.10398 11.4507 2.07593 11.4972 2.05688C11.5436 2.03782 11.5933 2.02814 11.6435 2.02839H11.6529C11.7546 2.02839 11.8497 2.0685 11.9206 2.14034L20.8512 11.0691C20.9221 11.1409 20.9623 11.237 20.9623 11.3369V2.21872C20.9623 2.11422 21.0472 2.02839 21.1517 2.02839H21.2086C21.259 2.02839 21.3065 2.04798 21.3429 2.08437L30.3286 11.0691C30.3995 11.1409 30.4405 11.237 30.4405 11.3369H30.4377Z" fill="white"/>
</g>
</g>
<defs>
<clipPath id="clip0_10965_79776">
<rect width="83" height="24" fill="white"/>
</clipPath>
</defs>
</svg>
