<svg width="62" height="24" viewBox="0 0 62 24" fill="none" xmlns="http://www.w3.org/2000/svg">
<path fill-rule="evenodd" clip-rule="evenodd" d="M15.3959 21.5002H10.0665L6.07002 6.25358C5.88033 5.55223 5.47757 4.9322 4.88512 4.63997C3.40659 3.90559 1.77735 3.32114 0 3.02637V2.43937H8.58534C9.77024 2.43937 10.6589 3.32114 10.807 4.34521L12.8806 15.3431L18.2075 2.43937H23.3888L15.3959 21.5002ZM26.3512 21.5002H21.3179L25.4625 2.43937H30.4957L26.3512 21.5002ZM37.007 7.72004C37.1552 6.69343 38.0438 6.10643 39.0806 6.10643C40.7099 5.95905 42.4846 6.25382 43.9657 6.98566L44.8544 2.88176C43.3733 2.29477 41.744 2 40.2655 2C35.3804 2 31.8257 4.64021 31.8257 8.30449C31.8257 11.0921 34.3436 12.5558 36.121 13.4375C38.0438 14.3168 38.7844 14.9038 38.6363 15.783C38.6363 17.1018 37.1552 17.6888 35.6766 17.6888C33.8993 17.6888 32.1219 17.2492 30.4953 16.5148L29.6066 20.6212C31.384 21.3531 33.3068 21.6479 35.0842 21.6479C40.5617 21.7927 43.9657 19.155 43.9657 15.196C43.9657 10.2103 37.007 9.9181 37.007 7.72004ZM61.5812 21.5002L57.5847 2.43937H53.2921C52.4034 2.43937 51.5147 3.02637 51.2185 3.90559L43.818 21.5002H48.9994L50.0336 18.7152H56.3998L56.9923 21.5002H61.5812ZM54.0327 7.57277L55.5112 14.7565H51.3667L54.0327 7.57277Z" fill="white"/>
</svg>
